<svg xmlns="http://www.w3.org/2000/svg" xmlns:xlink="http://www.w3.org/1999/xlink" width="50" zoomAndPan="magnify" viewBox="0 0 37.5 37.499999" height="50" preserveAspectRatio="xMidYMid meet" version="1.0"><defs><clipPath id="547a970b79"><path d="M 17.515625 18.671875 L 18.570312 18.671875 L 18.570312 28.070312 L 17.515625 28.070312 Z M 17.515625 18.671875 " clip-rule="nonzero"/></clipPath><clipPath id="aa2f99f925"><path d="M 18.570312 19.058594 C 18.453125 27.945312 18.277344 28.0625 18.160156 28.0625 C 18.042969 28.0625 17.808594 27.769531 17.835938 27.679688 C 17.867188 27.5625 18.394531 27.386719 18.453125 27.476562 C 18.511719 27.535156 18.304688 28.03125 18.21875 28.0625 C 18.101562 28.089844 17.925781 27.945312 17.835938 27.710938 C 17.425781 26.742188 17.425781 20.058594 17.808594 19.058594 C 17.894531 18.824219 18.011719 18.679688 18.128906 18.679688 C 18.277344 18.679688 18.570312 19.058594 18.570312 19.058594 " clip-rule="nonzero"/></clipPath><clipPath id="5f2ae65f5d"><path d="M 2.695312 1.105469 L 34.519531 1.105469 L 34.519531 35.894531 L 2.695312 35.894531 Z M 2.695312 1.105469 " clip-rule="nonzero"/></clipPath><clipPath id="9e4699825a"><path d="M 17 16 L 21 16 L 21 35.894531 L 17 35.894531 Z M 17 16 " clip-rule="nonzero"/></clipPath></defs><g clip-path="url(#547a970b79)"><g clip-path="url(#aa2f99f925)"><path fill="#1e1e1e" d="M 16.636719 17.507812 L 19.773438 17.507812 L 19.773438 29.234375 L 16.636719 29.234375 Z M 16.636719 17.507812 " fill-opacity="1" fill-rule="nonzero"/></g></g><path stroke-linecap="round" transform="matrix(1.570189, 0, 0, 1.559918, -0.234894, -0.296784)" fill="none" stroke-linejoin="round" d="M 16.499145 9.400473 L 7.500923 4.209396 " stroke="#000000" stroke-width="2" stroke-opacity="1" stroke-miterlimit="4"/><g clip-path="url(#5f2ae65f5d)"><path stroke-linecap="round" transform="matrix(1.570189, 0, 0, 1.559918, -0.234894, -0.296784)" fill="none" stroke-linejoin="round" d="M 20.999501 15.998875 L 20.999501 8.00066 C 20.999501 7.642569 20.909941 7.309518 20.730823 7.001509 C 20.551704 6.690996 20.307904 6.448095 19.999422 6.270301 L 12.998869 2.271194 C 12.690387 2.090896 12.357027 2.003251 11.99879 2.003251 C 11.643041 2.003251 11.309681 2.090896 11.001199 2.271194 L 4.000646 6.270301 C 3.689677 6.448095 3.445876 6.690996 3.269245 7.001509 C 3.090127 7.309518 3.000567 7.642569 3.000567 8.00066 L 3.000567 15.998875 C 3.000567 16.356966 3.090127 16.690017 3.269245 16.998026 C 3.445876 17.308539 3.689677 17.55144 4.000646 17.729234 L 11.001199 21.730845 C 11.309681 21.908639 11.643041 21.998788 11.99879 21.998788 C 12.357027 21.998788 12.690387 21.908639 12.998869 21.730845 L 19.999422 17.729234 C 20.307904 17.55144 20.551704 17.308539 20.730823 16.998026 C 20.909941 16.690017 20.999501 16.356966 20.999501 15.998875 Z M 20.999501 15.998875 " stroke="#000000" stroke-width="2" stroke-opacity="1" stroke-miterlimit="4"/></g><path stroke-linecap="round" transform="matrix(1.570189, 0, 0, 1.559918, -0.234894, -0.296784)" fill="none" stroke-linejoin="round" d="M 3.269245 6.958939 L 11.99879 12.009784 L 20.730823 6.958939 " stroke="#000000" stroke-width="2" stroke-opacity="1" stroke-miterlimit="4"/><g clip-path="url(#9e4699825a)"><path stroke-linecap="round" transform="matrix(1.570189, 0, 0, 1.559918, -0.234894, -0.296784)" fill="none" stroke-linejoin="round" d="M 11.99879 22.07892 L 11.99879 11.999767 " stroke="#000000" stroke-width="2" stroke-opacity="1" stroke-miterlimit="4"/></g></svg>